<?xml version="1.0" encoding="UTF-8"?>
<svg xmlns="http://www.w3.org/2000/svg" xmlns:xlink="http://www.w3.org/1999/xlink" width="47pt" height="47pt" viewBox="0 0 47 47" version="1.1">
<g id="surface1">
<path style=" stroke:none;fill-rule:nonzero;fill:rgb(0%,0%,0%);fill-opacity:1;" d="M 39.472656 3.167969 L 7.507812 3.167969 C 4.164062 3.167969 1.445312 5.886719 1.445312 9.230469 L 1.445312 28.792969 C 1.445312 32.128906 4.152344 34.84375 7.488281 34.855469 L 7.488281 43.730469 L 20.242188 34.855469 L 39.472656 34.855469 C 42.816406 34.855469 45.535156 32.132812 45.535156 28.792969 L 45.535156 9.230469 C 45.535156 5.886719 42.816406 3.167969 39.472656 3.167969 Z M 42.953125 28.792969 C 42.953125 30.710938 41.390625 32.269531 39.472656 32.269531 L 19.433594 32.269531 L 10.070312 38.785156 L 10.070312 32.269531 L 7.507812 32.269531 C 5.589844 32.269531 4.03125 30.710938 4.03125 28.792969 L 4.03125 9.230469 C 4.03125 7.3125 5.589844 5.753906 7.507812 5.753906 L 39.472656 5.753906 C 41.390625 5.753906 42.953125 7.3125 42.953125 9.230469 Z M 42.953125 28.792969 "/>
<path style=" stroke:none;fill-rule:nonzero;fill:rgb(0%,0%,0%);fill-opacity:1;" d="M 13.246094 12.296875 L 33.734375 12.296875 L 33.734375 14.878906 L 13.246094 14.878906 Z M 13.246094 12.296875 "/>
<path style=" stroke:none;fill-rule:nonzero;fill:rgb(0%,0%,0%);fill-opacity:1;" d="M 13.246094 17.808594 L 33.734375 17.808594 L 33.734375 20.390625 L 13.246094 20.390625 Z M 13.246094 17.808594 "/>
<path style=" stroke:none;fill-rule:nonzero;fill:rgb(0%,0%,0%);fill-opacity:1;" d="M 13.246094 23.320312 L 33.734375 23.320312 L 33.734375 25.902344 L 13.246094 25.902344 Z M 13.246094 23.320312 "/>
</g>
</svg>
