<?xml version="1.0" encoding="iso-8859-1"?>
<!-- Generator: Adobe Illustrator 19.0.0, SVG Export Plug-In . SVG Version: 6.00 Build 0)  -->
<svg version="1.1" id="Capa_1" xmlns="http://www.w3.org/2000/svg" xmlns:xlink="http://www.w3.org/1999/xlink" x="0px" y="0px"
	 viewBox="0 0 512 512" style="enable-background:new 0 0 512 512;" xml:space="preserve">
<g>
	<g>
		<path d="M329.987,179.6c0.002-0.334,0.013-0.666,0.013-1c0-90.981-74.019-165-165-165S0,87.618,0,178.6v198.81l81.054-56.738
			c21.657,12.831,45.821,20.443,70.946,22.402V409.6h217.557L437,498.4l75-98.75V179.6H329.987z M89.094,290.249l-8.561-5.832
			L30,319.79V178.6c0-74.439,60.561-135,135-135s135,60.561,135,135s-60.561,135-135,135
			C137.763,313.6,111.516,305.526,89.094,290.249z M482,389.55l-45,59.25l-52.557-69.2H182v-36.871
			c18.009-1.852,35.168-6.612,51-13.802V339.6h148v-30H265.195c11.302-8.665,21.455-18.753,30.188-30H431v-30H313.925
			c6.004-12.543,10.462-25.96,13.142-40H482V389.55z"/>
	</g>
</g>
<g>
	<g>
		<path d="M165,93.6c-24.813,0-45,20.187-45,45h30c0-8.271,6.729-15,15-15s15,6.729,15,15c0,8.271-6.729,15-15,15h-15v50h30v-22.57
			c17.461-6.191,30-22.874,30-42.43C210,113.787,189.813,93.6,165,93.6z"/>
	</g>
</g>
<g>
	<g>
		<rect x="150" y="233.6" width="30" height="30"/>
	</g>
</g>
<g>
</g>
<g>
</g>
<g>
</g>
<g>
</g>
<g>
</g>
<g>
</g>
<g>
</g>
<g>
</g>
<g>
</g>
<g>
</g>
<g>
</g>
<g>
</g>
<g>
</g>
<g>
</g>
<g>
</g>
</svg>
