<?xml version="1.0" encoding="UTF-8"?>
<svg xmlns="http://www.w3.org/2000/svg" xmlns:xlink="http://www.w3.org/1999/xlink" width="45pt" height="45pt" viewBox="0 0 45 45" version="1.1">
<g id="surface1">
<path style=" stroke:none;fill-rule:nonzero;fill:rgb(0%,0%,0%);fill-opacity:1;" d="M 18.121094 21.113281 C 17.847656 21.199219 17.660156 21.453125 17.660156 21.742188 L 17.660156 27.042969 C 17.660156 27.40625 17.953125 27.699219 18.320312 27.699219 C 18.683594 27.699219 18.976562 27.40625 18.976562 27.042969 L 18.976562 23.859375 L 21.355469 27.304688 C 21.550781 27.585938 21.875 27.703125 22.179688 27.609375 C 22.492188 27.511719 22.695312 27.21875 22.695312 26.855469 L 22.644531 21.726562 C 22.640625 21.363281 22.347656 21.074219 21.988281 21.074219 C 21.984375 21.074219 21.980469 21.074219 21.980469 21.074219 C 21.617188 21.078125 21.324219 21.375 21.328125 21.738281 L 21.359375 24.984375 L 18.863281 21.367188 C 18.699219 21.128906 18.398438 21.027344 18.121094 21.113281 Z M 18.121094 21.113281 "/>
<path style=" stroke:none;fill-rule:nonzero;fill:rgb(0%,0%,0%);fill-opacity:1;" d="M 4.347656 21.230469 C 4.175781 21.230469 4.007812 21.300781 3.882812 21.421875 C 3.757812 21.546875 3.6875 21.714844 3.691406 21.890625 C 3.691406 21.890625 3.695312 23.871094 3.695312 24.457031 C 3.695312 25.175781 3.703125 27.042969 3.703125 27.042969 C 3.703125 27.21875 3.773438 27.386719 3.898438 27.511719 C 4.019531 27.632812 4.1875 27.699219 4.363281 27.699219 C 4.410156 27.699219 5.449219 27.695312 5.863281 27.6875 C 7.417969 27.660156 8.546875 26.304688 8.546875 24.464844 C 8.546875 22.53125 7.445312 21.230469 5.808594 21.230469 Z M 7.226562 24.464844 C 7.226562 25.402344 6.796875 26.351562 5.839844 26.371094 C 5.652344 26.375 5.320312 26.375 5.019531 26.378906 C 5.015625 25.769531 5.011719 24.898438 5.011719 24.457031 C 5.011719 24.09375 5.011719 23.179688 5.007812 22.546875 L 5.808594 22.546875 C 7.160156 22.546875 7.226562 24.144531 7.226562 24.464844 Z M 7.226562 24.464844 "/>
<path style=" stroke:none;fill-rule:nonzero;fill:rgb(0%,0%,0%);fill-opacity:1;" d="M 25.167969 27.277344 L 25.503906 26.398438 L 27.792969 26.398438 L 28.125 27.273438 C 28.222656 27.539062 28.472656 27.703125 28.742188 27.703125 C 28.816406 27.703125 28.898438 27.6875 28.972656 27.660156 C 29.3125 27.53125 29.484375 27.148438 29.355469 26.808594 L 27.382812 21.574219 C 27.382812 21.570312 27.382812 21.566406 27.378906 21.5625 C 27.261719 21.265625 26.976562 21.074219 26.65625 21.074219 C 26.335938 21.074219 26.050781 21.265625 25.933594 21.5625 C 25.933594 21.566406 25.929688 21.570312 25.929688 21.570312 L 23.9375 26.808594 C 23.808594 27.148438 23.976562 27.527344 24.316406 27.65625 C 24.660156 27.789062 25.039062 27.617188 25.167969 27.277344 Z M 26.652344 23.375 L 27.296875 25.078125 L 26.003906 25.078125 Z M 26.652344 23.375 "/>
<path style=" stroke:none;fill-rule:nonzero;fill:rgb(0%,0%,0%);fill-opacity:1;" d="M 37.78125 22.4375 C 38.144531 22.4375 38.4375 22.144531 38.4375 21.78125 C 38.4375 21.414062 38.144531 21.121094 37.78125 21.121094 L 35.566406 21.121094 C 35.199219 21.121094 34.90625 21.414062 34.90625 21.78125 L 34.90625 27.042969 C 34.90625 27.40625 35.199219 27.699219 35.566406 27.699219 L 37.78125 27.699219 C 38.144531 27.699219 38.4375 27.40625 38.4375 27.042969 C 38.4375 26.675781 38.144531 26.382812 37.78125 26.382812 L 36.222656 26.382812 L 36.222656 25.070312 L 37.617188 25.070312 C 37.980469 25.070312 38.277344 24.773438 38.277344 24.410156 C 38.277344 24.046875 37.980469 23.75 37.617188 23.75 L 36.222656 23.75 L 36.222656 22.4375 Z M 37.78125 22.4375 "/>
<path style=" stroke:none;fill-rule:nonzero;fill:rgb(0%,0%,0%);fill-opacity:1;" d="M 31.808594 27.699219 C 32.175781 27.699219 32.46875 27.40625 32.46875 27.042969 L 32.46875 22.390625 L 33.28125 22.390625 C 33.644531 22.390625 33.9375 22.097656 33.9375 21.730469 C 33.9375 21.367188 33.644531 21.074219 33.28125 21.074219 L 30.351562 21.074219 C 29.988281 21.074219 29.695312 21.367188 29.695312 21.730469 C 29.695312 22.097656 29.988281 22.390625 30.351562 22.390625 L 31.152344 22.390625 L 31.152344 27.042969 C 31.152344 27.40625 31.445312 27.699219 31.808594 27.699219 Z M 31.808594 27.699219 "/>
<path style=" stroke:none;fill-rule:nonzero;fill:rgb(0%,0%,0%);fill-opacity:1;" d="M 9.542969 24.304688 C 9.542969 26.128906 11.03125 27.617188 12.855469 27.617188 C 14.683594 27.617188 16.167969 26.128906 16.167969 24.304688 C 16.167969 22.476562 14.679688 20.988281 12.855469 20.988281 C 11.03125 20.988281 9.542969 22.476562 9.542969 24.304688 Z M 14.847656 24.304688 C 14.847656 25.402344 13.953125 26.296875 12.855469 26.296875 C 11.757812 26.296875 10.863281 25.402344 10.863281 24.304688 C 10.863281 23.203125 11.757812 22.304688 12.855469 22.304688 C 13.953125 22.304688 14.847656 23.203125 14.847656 24.304688 Z M 14.847656 24.304688 "/>
<path style=" stroke:none;fill-rule:nonzero;fill:rgb(0%,0%,0%);fill-opacity:1;" d="M 44.164062 14.039062 C 43.234375 13.074219 41.710938 13.070312 40.53125 13.996094 C 39.351562 13.070312 37.824219 13.074219 36.894531 14.039062 C 35.996094 14.972656 35.820312 16.378906 36.375 17.492188 L 2.015625 17.492188 C 0.90625 17.492188 0 18.398438 0 19.507812 L 0 29.484375 C 0 30.597656 0.90625 31.503906 2.015625 31.503906 L 18.355469 31.503906 C 18.71875 31.503906 19.011719 31.210938 19.011719 30.84375 C 19.011719 30.480469 18.71875 30.1875 18.355469 30.1875 L 2.015625 30.1875 C 1.632812 30.1875 1.320312 29.871094 1.320312 29.484375 L 1.320312 19.507812 C 1.320312 19.125 1.632812 18.808594 2.015625 18.808594 L 37.476562 18.808594 L 39.839844 21.15625 C 40.023438 21.335938 40.269531 21.484375 40.53125 21.484375 C 40.789062 21.484375 41.035156 21.335938 41.214844 21.15625 L 41.472656 20.902344 L 41.472656 29.484375 C 41.472656 29.871094 41.160156 30.1875 40.773438 30.1875 L 34.695312 30.1875 L 32.113281 29.265625 C 31.914062 29.191406 31.6875 29.222656 31.511719 29.347656 C 31.335938 29.46875 31.234375 29.671875 31.234375 29.886719 L 31.234375 30.1875 L 21.394531 30.1875 C 21.03125 30.1875 20.738281 30.480469 20.738281 30.84375 C 20.738281 31.210938 21.03125 31.503906 21.394531 31.503906 L 31.230469 31.503906 L 31.226562 37.46875 C 31.226562 37.714844 31.363281 37.9375 31.582031 38.050781 C 31.800781 38.164062 32.066406 38.148438 32.265625 38.007812 L 33.6875 37.007812 L 36.425781 40.898438 C 36.527344 41.042969 36.679688 41.140625 36.851562 41.167969 C 36.890625 41.175781 36.925781 41.179688 36.964844 41.179688 C 37.101562 41.179688 37.234375 41.136719 37.34375 41.058594 L 40.570312 38.785156 C 40.867188 38.578125 40.9375 38.167969 40.726562 37.867188 L 37.988281 33.972656 L 39.40625 32.96875 C 39.609375 32.828125 39.714844 32.585938 39.679688 32.34375 C 39.648438 32.097656 39.480469 31.894531 39.25 31.8125 L 38.390625 31.503906 L 40.773438 31.503906 C 41.886719 31.503906 42.792969 30.597656 42.792969 29.484375 L 42.792969 19.59375 L 44.152344 18.242188 C 44.15625 18.238281 44.160156 18.234375 44.164062 18.230469 C 45.277344 17.078125 45.277344 15.195312 44.164062 14.039062 Z M 39.269531 38.089844 L 37.125 39.601562 L 34.382812 35.707031 C 34.285156 35.566406 34.128906 35.46875 33.957031 35.4375 C 33.921875 35.433594 33.882812 35.429688 33.84375 35.429688 C 33.710938 35.429688 33.578125 35.46875 33.464844 35.550781 L 32.546875 36.195312 L 32.550781 30.820312 L 37.609375 32.625 L 36.691406 33.273438 C 36.390625 33.484375 36.320312 33.894531 36.53125 34.191406 Z M 43.21875 17.3125 L 40.527344 19.980469 L 37.835938 17.3125 C 37.214844 16.660156 37.21875 15.605469 37.84375 14.953125 C 38.386719 14.390625 39.273438 14.625 39.832031 15.132812 C 39.875 15.167969 39.90625 15.199219 39.933594 15.226562 C 40.054688 15.339844 40.234375 15.511719 40.523438 15.511719 C 40.527344 15.511719 40.53125 15.511719 40.535156 15.511719 C 40.824219 15.511719 41.007812 15.335938 41.132812 15.21875 C 41.160156 15.195312 41.191406 15.164062 41.222656 15.132812 C 41.785156 14.625 42.671875 14.390625 43.214844 14.953125 C 43.839844 15.605469 43.84375 16.660156 43.21875 17.3125 Z M 43.21875 17.3125 "/>
<path style=" stroke:none;fill-rule:nonzero;fill:rgb(0%,0%,0%);fill-opacity:1;" d="M 28.660156 9.996094 C 28.921875 9.742188 28.929688 9.324219 28.675781 9.0625 C 27.765625 8.117188 27.765625 6.582031 28.675781 5.636719 C 29.488281 4.796875 30.792969 5.128906 31.613281 5.867188 C 31.671875 5.921875 31.71875 5.964844 31.757812 6.003906 C 31.898438 6.132812 32.082031 6.3125 32.378906 6.3125 C 32.382812 6.3125 32.386719 6.3125 32.390625 6.3125 C 32.691406 6.3125 32.878906 6.132812 33.015625 6 C 33.054688 5.964844 33.101562 5.921875 33.164062 5.863281 C 33.980469 5.128906 35.285156 4.796875 36.097656 5.640625 C 37.003906 6.582031 37.007812 8.113281 36.101562 9.058594 L 32.386719 12.742188 L 30.855469 11.226562 C 30.59375 10.96875 30.179688 10.96875 29.921875 11.230469 C 29.664062 11.488281 29.667969 11.90625 29.925781 12.160156 L 31.628906 13.847656 C 31.828125 14.046875 32.097656 14.222656 32.386719 14.222656 C 32.671875 14.222656 32.949219 14.042969 33.144531 13.847656 L 36.570312 10.449219 L 37.035156 9.988281 C 37.039062 9.984375 37.042969 9.980469 37.046875 9.976562 C 38.441406 8.527344 38.441406 6.171875 37.046875 4.722656 C 35.859375 3.488281 33.875 3.527344 32.386719 4.792969 C 30.894531 3.527344 28.914062 3.492188 27.726562 4.722656 C 26.332031 6.171875 26.332031 8.527344 27.726562 9.976562 C 27.980469 10.242188 28.398438 10.25 28.660156 9.996094 Z M 28.660156 9.996094 "/>
</g>
</svg>
