<?xml version="1.0" encoding="UTF-8"?>
<svg xmlns="http://www.w3.org/2000/svg" xmlns:xlink="http://www.w3.org/1999/xlink" width="45pt" height="45pt" viewBox="0 0 45 45" version="1.1">
<g id="surface1">
<path style=" stroke:none;fill-rule:nonzero;fill:rgb(0%,0%,0%);fill-opacity:1;" d="M 1.929688 0 L 1.929688 37.804688 L 3.25 37.804688 L 3.25 1.316406 L 28.789062 1.316406 L 28.789062 6.621094 L 34.09375 6.621094 L 34.09375 43.683594 L 3.25 43.683594 L 3.25 39.121094 L 1.929688 39.121094 L 1.929688 45 L 35.414062 45 L 35.414062 5.691406 L 29.722656 0 Z M 30.109375 2.25 L 33.160156 5.304688 L 30.109375 5.304688 Z M 30.109375 2.25 "/>
<path style=" stroke:none;fill-rule:nonzero;fill:rgb(0%,0%,0%);fill-opacity:1;" d="M 43.070312 9.289062 L 41.757812 7.824219 L 41.757812 4.78125 L 37.804688 4.78125 L 37.804688 7.824219 L 36.492188 9.289062 L 37.175781 34.925781 L 37.804688 34.925781 L 37.804688 37.058594 L 39.78125 41.011719 L 41.757812 37.058594 L 41.757812 34.925781 L 42.386719 34.925781 Z M 38.460938 33.605469 L 38.210938 24.179688 L 41.351562 24.179688 L 41.101562 33.605469 Z M 38.175781 22.863281 L 37.824219 9.777344 L 38.757812 8.734375 L 40.804688 8.734375 L 41.738281 9.777344 L 41.386719 22.863281 Z M 39.121094 6.097656 L 40.441406 6.097656 L 40.441406 7.417969 L 39.121094 7.417969 Z M 40.441406 36.746094 L 39.78125 38.066406 L 39.121094 36.746094 L 39.121094 34.925781 L 40.441406 34.925781 Z M 40.441406 36.746094 "/>
<path style=" stroke:none;fill-rule:nonzero;fill:rgb(0%,0%,0%);fill-opacity:1;" d="M 6.355469 28.566406 L 7.671875 28.566406 L 7.671875 29.886719 L 6.355469 29.886719 Z M 6.355469 28.566406 "/>
<path style=" stroke:none;fill-rule:nonzero;fill:rgb(0%,0%,0%);fill-opacity:1;" d="M 8.992188 28.566406 L 18.394531 28.566406 L 18.394531 29.886719 L 8.992188 29.886719 Z M 8.992188 28.566406 "/>
<path style=" stroke:none;fill-rule:nonzero;fill:rgb(0%,0%,0%);fill-opacity:1;" d="M 23.019531 21.839844 L 30.988281 21.839844 L 30.988281 23.160156 L 23.019531 23.160156 Z M 23.019531 21.839844 "/>
<path style=" stroke:none;fill-rule:nonzero;fill:rgb(0%,0%,0%);fill-opacity:1;" d="M 6.355469 21.839844 L 21.703125 21.839844 L 21.703125 23.160156 L 6.355469 23.160156 Z M 6.355469 21.839844 "/>
<path style=" stroke:none;fill-rule:nonzero;fill:rgb(0%,0%,0%);fill-opacity:1;" d="M 6.355469 25.203125 L 11.222656 25.203125 L 11.222656 26.523438 L 6.355469 26.523438 Z M 6.355469 25.203125 "/>
<path style=" stroke:none;fill-rule:nonzero;fill:rgb(0%,0%,0%);fill-opacity:1;" d="M 12.539062 25.203125 L 30.988281 25.203125 L 30.988281 26.523438 L 12.539062 26.523438 Z M 12.539062 25.203125 "/>
<path style=" stroke:none;fill-rule:nonzero;fill:rgb(0%,0%,0%);fill-opacity:1;" d="M 6.355469 18.476562 L 11.222656 18.476562 L 11.222656 19.796875 L 6.355469 19.796875 Z M 6.355469 18.476562 "/>
<path style=" stroke:none;fill-rule:nonzero;fill:rgb(0%,0%,0%);fill-opacity:1;" d="M 12.539062 18.476562 L 30.988281 18.476562 L 30.988281 19.796875 L 12.539062 19.796875 Z M 12.539062 18.476562 "/>
<path style=" stroke:none;fill-rule:nonzero;fill:rgb(0%,0%,0%);fill-opacity:1;" d="M 23.019531 11.75 L 30.988281 11.75 L 30.988281 13.070312 L 23.019531 13.070312 Z M 23.019531 11.75 "/>
<path style=" stroke:none;fill-rule:nonzero;fill:rgb(0%,0%,0%);fill-opacity:1;" d="M 6.355469 11.75 L 21.703125 11.75 L 21.703125 13.070312 L 6.355469 13.070312 Z M 6.355469 11.75 "/>
<path style=" stroke:none;fill-rule:nonzero;fill:rgb(0%,0%,0%);fill-opacity:1;" d="M 21.703125 15.113281 L 6.355469 15.113281 L 6.355469 16.433594 L 30.988281 16.433594 L 30.988281 15.113281 Z M 21.703125 15.113281 "/>
<path style=" stroke:none;fill-rule:nonzero;fill:rgb(0%,0%,0%);fill-opacity:1;" d="M 8.992188 31.929688 L 18.394531 31.929688 L 18.394531 33.25 L 8.992188 33.25 Z M 8.992188 31.929688 "/>
<path style=" stroke:none;fill-rule:nonzero;fill:rgb(0%,0%,0%);fill-opacity:1;" d="M 6.355469 31.929688 L 7.671875 31.929688 L 7.671875 33.25 L 6.355469 33.25 Z M 6.355469 31.929688 "/>
<path style=" stroke:none;fill-rule:nonzero;fill:rgb(0%,0%,0%);fill-opacity:1;" d="M 24.222656 8.386719 L 30.988281 8.386719 L 30.988281 9.707031 L 24.222656 9.707031 Z M 24.222656 8.386719 "/>
<path style=" stroke:none;fill-rule:nonzero;fill:rgb(0%,0%,0%);fill-opacity:1;" d="M 18.949219 8.386719 L 20.269531 8.386719 L 20.269531 9.707031 L 18.949219 9.707031 Z M 18.949219 8.386719 "/>
<path style=" stroke:none;fill-rule:nonzero;fill:rgb(0%,0%,0%);fill-opacity:1;" d="M 21.585938 8.386719 L 22.90625 8.386719 L 22.90625 9.707031 L 21.585938 9.707031 Z M 21.585938 8.386719 "/>
<path style=" stroke:none;fill-rule:nonzero;fill:rgb(0%,0%,0%);fill-opacity:1;" d="M 39.121094 10.714844 L 40.441406 10.714844 L 40.441406 16.445312 L 39.121094 16.445312 Z M 39.121094 10.714844 "/>
<path style=" stroke:none;fill-rule:nonzero;fill:rgb(0%,0%,0%);fill-opacity:1;" d="M 39.121094 17.765625 L 40.441406 17.765625 L 40.441406 19.082031 L 39.121094 19.082031 Z M 39.121094 17.765625 "/>
<path style=" stroke:none;fill-rule:nonzero;fill:rgb(0%,0%,0%);fill-opacity:1;" d="M 8.523438 2.636719 L 9.839844 2.636719 L 9.839844 3.953125 L 8.523438 3.953125 Z M 8.523438 2.636719 "/>
<path style=" stroke:none;fill-rule:nonzero;fill:rgb(0%,0%,0%);fill-opacity:1;" d="M 4.566406 7.25 L 5.886719 7.25 L 5.886719 3.953125 L 7.203125 3.953125 L 7.203125 2.636719 L 4.566406 2.636719 Z M 4.566406 7.25 "/>
<path style=" stroke:none;fill-rule:nonzero;fill:rgb(0%,0%,0%);fill-opacity:1;" d="M 11.160156 2.636719 L 12.476562 2.636719 L 12.476562 3.953125 L 11.160156 3.953125 Z M 11.160156 2.636719 "/>
<path style=" stroke:none;fill-rule:nonzero;fill:rgb(0%,0%,0%);fill-opacity:1;" d="M 25.523438 41.046875 L 26.84375 41.046875 L 26.84375 42.363281 L 25.523438 42.363281 Z M 25.523438 41.046875 "/>
<path style=" stroke:none;fill-rule:nonzero;fill:rgb(0%,0%,0%);fill-opacity:1;" d="M 32.777344 39.726562 L 31.457031 39.726562 L 31.457031 41.046875 L 28.160156 41.046875 L 28.160156 42.363281 L 32.777344 42.363281 Z M 32.777344 39.726562 "/>
<path style=" stroke:none;fill-rule:nonzero;fill:rgb(0%,0%,0%);fill-opacity:1;" d="M 30.988281 31.929688 L 23.078125 31.929688 L 23.078125 36.542969 L 30.988281 36.542969 Z M 29.671875 35.226562 L 24.398438 35.226562 L 24.398438 33.25 L 29.671875 33.25 Z M 29.671875 35.226562 "/>
</g>
</svg>
