<?xml version="1.0" encoding="UTF-8"?>
<svg xmlns="http://www.w3.org/2000/svg" xmlns:xlink="http://www.w3.org/1999/xlink" width="42pt" height="42pt" viewBox="0 0 42 42" version="1.1">
<g id="surface1">
<path style=" stroke:none;fill-rule:nonzero;fill:rgb(0%,0%,0%);fill-opacity:1;" d="M 36.179688 28.105469 C 36.179688 27.019531 35.296875 26.136719 34.207031 26.136719 C 33.121094 26.136719 32.238281 27.019531 32.238281 28.105469 C 32.238281 29.191406 33.121094 30.078125 34.207031 30.078125 C 35.296875 30.078125 36.179688 29.191406 36.179688 28.105469 Z M 33.460938 28.105469 C 33.460938 27.691406 33.796875 27.355469 34.207031 27.355469 C 34.621094 27.355469 34.957031 27.691406 34.957031 28.105469 C 34.957031 28.519531 34.621094 28.855469 34.207031 28.855469 C 33.796875 28.855469 33.460938 28.519531 33.460938 28.105469 Z M 23.972656 28.105469 C 23.972656 27.019531 23.089844 26.136719 22.003906 26.136719 C 20.914062 26.136719 20.03125 27.019531 20.03125 28.105469 C 20.03125 29.191406 20.914062 30.078125 22.003906 30.078125 C 23.089844 30.078125 23.972656 29.191406 23.972656 28.105469 Z M 21.253906 28.105469 C 21.253906 27.691406 21.589844 27.355469 22.003906 27.355469 C 22.414062 27.355469 22.75 27.691406 22.75 28.105469 C 22.75 28.519531 22.414062 28.855469 22.003906 28.855469 C 21.589844 28.855469 21.253906 28.519531 21.253906 28.105469 Z M 39.449219 39.695312 L 37.066406 38.28125 C 40.015625 35.6875 41.691406 31.949219 41.667969 28.019531 C 41.644531 24.464844 40.246094 21.109375 37.722656 18.566406 C 35.203125 16.027344 31.859375 14.597656 28.304688 14.546875 C 27.898438 14.542969 27.488281 14.558594 27.082031 14.585938 C 27.105469 14.246094 27.121094 13.902344 27.121094 13.5625 C 27.121094 9.902344 25.6875 6.472656 23.078125 3.902344 C 20.476562 1.335938 17.019531 -0.0507812 13.359375 0 C 10.910156 0.0351562 8.511719 0.742188 6.429688 2.042969 C 6.144531 2.214844 6.054688 2.59375 6.234375 2.878906 C 6.414062 3.167969 6.785156 3.253906 7.074219 3.074219 C 8.96875 1.894531 11.148438 1.253906 13.378906 1.222656 C 16.710938 1.175781 19.851562 2.433594 22.222656 4.773438 C 24.59375 7.109375 25.898438 10.230469 25.898438 13.5625 C 25.898438 14.101562 25.867188 14.636719 25.796875 15.164062 C 25.453125 17.816406 24.265625 20.273438 22.363281 22.207031 C 20.085938 24.523438 17.042969 25.835938 13.800781 25.898438 L 3.339844 25.898438 L 5.277344 24.753906 C 5.597656 24.5625 5.8125 24.226562 5.847656 23.851562 C 5.882812 23.476562 5.730469 23.109375 5.449219 22.863281 C 2.742188 20.496094 1.199219 17.078125 1.222656 13.480469 C 1.242188 10.140625 2.589844 7.011719 5.023438 4.675781 C 5.261719 4.441406 5.273438 4.050781 5.039062 3.8125 C 4.804688 3.566406 4.417969 3.5625 4.175781 3.796875 C 1.507812 6.359375 0.0234375 9.796875 0 13.472656 C -0.0273438 17.402344 1.652344 21.140625 4.597656 23.738281 L 2.214844 25.144531 C 1.800781 25.394531 1.605469 25.871094 1.730469 26.339844 C 1.863281 26.808594 2.273438 27.121094 2.757812 27.121094 L 13.804688 27.121094 C 13.808594 27.121094 13.8125 27.121094 13.816406 27.121094 C 17.386719 27.050781 20.730469 25.613281 23.230469 23.0625 C 25.207031 21.058594 26.476562 18.542969 26.933594 15.820312 C 27.378906 15.78125 27.835938 15.761719 28.289062 15.769531 C 31.515625 15.8125 34.558594 17.117188 36.855469 19.425781 C 39.152344 21.742188 40.425781 24.792969 40.445312 28.027344 C 40.46875 31.621094 38.925781 35.042969 36.214844 37.40625 C 35.929688 37.652344 35.785156 38.023438 35.816406 38.398438 C 35.851562 38.773438 36.066406 39.109375 36.390625 39.300781 L 38.328125 40.445312 L 27.867188 40.441406 C 21.589844 40.324219 16.417969 35.527344 15.824219 29.285156 C 15.792969 28.953125 15.492188 28.703125 15.15625 28.738281 C 14.820312 28.769531 14.574219 29.066406 14.605469 29.402344 C 15.257812 36.261719 20.949219 41.535156 27.847656 41.664062 C 27.855469 41.664062 27.859375 41.664062 27.863281 41.664062 L 38.910156 41.667969 C 39.394531 41.667969 39.804688 41.355469 39.933594 40.886719 C 40.0625 40.417969 39.867188 39.9375 39.449219 39.695312 Z M 13.5625 20.363281 C 12.472656 20.363281 11.589844 21.242188 11.589844 22.332031 C 11.589844 23.417969 12.472656 24.300781 13.5625 24.300781 C 14.644531 24.300781 15.53125 23.417969 15.53125 22.332031 C 15.53125 21.242188 14.644531 20.363281 13.5625 20.363281 Z M 13.5625 23.078125 C 13.148438 23.078125 12.8125 22.746094 12.8125 22.332031 C 12.8125 21.917969 13.148438 21.582031 13.5625 21.582031 C 13.972656 21.582031 14.308594 21.917969 14.308594 22.332031 C 14.308594 22.746094 13.972656 23.078125 13.5625 23.078125 Z M 30.074219 28.105469 C 30.074219 27.019531 29.191406 26.136719 28.105469 26.136719 C 27.019531 26.136719 26.136719 27.019531 26.136719 28.105469 C 26.136719 29.191406 27.019531 30.078125 28.105469 30.078125 C 29.191406 30.078125 30.074219 29.191406 30.074219 28.105469 Z M 27.355469 28.105469 C 27.355469 27.691406 27.691406 27.355469 28.105469 27.355469 C 28.519531 27.355469 28.855469 27.691406 28.855469 28.105469 C 28.855469 28.519531 28.519531 28.855469 28.105469 28.855469 C 27.691406 28.855469 27.355469 28.519531 27.355469 28.105469 Z M 17.902344 12.929688 C 19.046875 11.730469 19.625 10.148438 19.542969 8.492188 C 19.375 5.328125 16.730469 2.820312 13.5625 2.820312 C 10.589844 2.820312 8.039062 5.035156 7.628906 7.976562 C 7.589844 8.25 7.570312 8.527344 7.570312 8.808594 C 7.570312 9.816406 8.390625 10.636719 9.402344 10.636719 C 10.414062 10.636719 11.234375 9.816406 11.234375 8.808594 C 11.234375 8.699219 11.238281 8.585938 11.257812 8.480469 C 11.417969 7.316406 12.429688 6.457031 13.609375 6.480469 C 14.820312 6.507812 15.820312 7.472656 15.882812 8.683594 C 15.917969 9.328125 15.691406 9.941406 15.246094 10.410156 C 14.800781 10.875 14.203125 11.132812 13.5625 11.132812 C 12.550781 11.132812 11.730469 11.957031 11.730469 12.964844 L 11.730469 17.3125 C 11.730469 18.320312 12.550781 19.144531 13.5625 19.144531 C 14.570312 19.144531 15.390625 18.320312 15.390625 17.3125 L 15.390625 14.507812 C 16.347656 14.199219 17.210938 13.660156 17.902344 12.929688 Z M 14.640625 13.449219 C 14.363281 13.515625 14.167969 13.761719 14.167969 14.042969 L 14.167969 17.3125 C 14.167969 17.648438 13.894531 17.921875 13.5625 17.921875 C 13.222656 17.921875 12.949219 17.648438 12.949219 17.3125 L 12.949219 12.964844 C 12.949219 12.628906 13.222656 12.355469 13.5625 12.355469 C 14.542969 12.355469 15.457031 11.964844 16.132812 11.25 C 16.808594 10.535156 17.152344 9.601562 17.101562 8.621094 C 17.003906 6.746094 15.4375 5.261719 13.5625 5.261719 C 11.796875 5.261719 10.292969 6.5625 10.050781 8.3125 C 9.984375 8.78125 10.054688 9.417969 9.402344 9.417969 C 8.699219 9.417969 8.773438 8.621094 8.839844 8.144531 C 9.167969 5.804688 11.195312 4.039062 13.5625 4.039062 C 16.078125 4.039062 18.191406 6.039062 18.320312 8.554688 C 18.386719 9.875 17.925781 11.132812 17.019531 12.089844 C 16.378906 12.761719 15.554688 13.234375 14.640625 13.449219 Z M 14.640625 13.449219 "/>
</g>
</svg>
